

<svg 
xmlns:dc="http://purl.org/dc/elements/1.1/" 
xmlns:cc="http://creativecommons.org/ns#" 
xmlns:rdf="http://www.w3.org/1999/02/22-rdf-syntax-ns#" 
xmlns:svg="http://www.w3.org/2000/svg" xmlns="http://www.w3.org/2000/svg" 
xmlns:sodipodi="http://sodipodi.sourceforge.net/DTD/sodipodi-0.dtd" 
xmlns:inkscape="http://www.inkscape.org/namespaces/inkscape" 
version="1.1" x="0px" y="0px" viewBox="0 0 100 125">
<g transform="translate(0,-952.36218)">
<path style="text-indent:0;text-transform:none;direction:ltr;block-progression:tb;baseline-shift:baseline;color:#ffffff;enable-background:accumulate;" d="M 63.8125,958.36438 A 2.0021961,2.0021461 0 1 0 64,962.36428 l 23.15625,0 -48.5625,48.56132 a 2.0002,2.00015 0 1 0 2.8125,2.8436 L 90,965.17671 l 0,23.18692 a 2.0002,2.00015 0 1 0 4,0 l 0,-27.9993 a 2.0002,2.00015 0 0 0 -2,-1.99995 l -28,0 a 2.0002,2.00015 0 0 0 -0.1875,0 z m -56,9.99975 A 2.0002,2.00015 0 0 0 6,970.36408 l 0,73.99812 a 2.0002,2.00015 0 0 0 2,2 l 74,0 a 2.0002,2.00015 0 0 0 2,-2 l 0,-51.99867 a 2.0002,2.00015 0 1 0 -4,0 l 0,49.99877 -70,0 0,-69.99827 50,0 a 2.0002,2.00015 0 1 0 0,-3.9999 l -52,0 a 2.0002,2.00015 0 0 0 -0.1875,0 z" 
fill="#999" 
fill-opacity="1" 
stroke="none" 
marker="none" 
visibility="visible" 
display="inline" 
overflow="visible"/>
</g></svg>